<svg xmlns="http://www.w3.org/2000/svg" width="1600" height="900" viewBox="0 0 1600 900">
  <rect fill="#18181b" width="1600" height="900"/>
  <rect fill="#27272a" x="100" y="100" width="1400" height="500" rx="20"/>
  <rect fill="#3f3f46" x="120" y="120" width="300" height="460" rx="8"/>
  <rect fill="#06b6d4" x="140" y="140" width="260" height="40" rx="8"/>
  <rect fill="#52525b" x="140" y="200" width="200" height="15" rx="4"/>
  <rect fill="#52525b" x="140" y="225" width="180" height="15" rx="4"/>
  <rect fill="#52525b" x="140" y="250" width="220" height="15" rx="4"/>
  <rect fill="#3f3f46" x="440" y="120" width="1040" height="460" rx="8"/>
  <path stroke="#22c55e" stroke-width="3" fill="none" d="M500,400 Q700,200 900,350 T1300,250"/>
  <rect fill="#a855f7" x="500" y="480" width="100" height="80" rx="4"/>
  <rect fill="#a855f7" x="620" y="420" width="100" height="140" rx="4"/>
  <rect fill="#a855f7" x="740" y="380" width="100" height="180" rx="4"/>
  <text x="800" y="800" text-anchor="middle" fill="#71717a" font-family="system-ui" font-size="24">API Gateway - Developer Tools</text>
</svg>
